<svg width="240" height="336" xmlns="http://www.w3.org/2000/svg" xmlns:svg="http://www.w3.org/2000/svg" xmlns:xlink="http://www.w3.org/1999/xlink" class="card" preserveAspectRatio="none">
 <symbol id="SA" viewBox="-500 -500 1000 1000" preserveAspectRatio="xMinYMid">
  <path d="m-270,460l160,0m-90,-10l200,-910l200,910m-90,10l160,0m-390,-330l240,0" stroke="black" stroke-width="80" stroke-linecap="square" stroke-miterlimit="1.5" fill="none" id="svg_1"/>
 </symbol>
 <symbol id="S" viewBox="-600 -600 1200 1200" preserveAspectRatio="xMinYMid">
  <path d="m0,-500c100,250 355,400 355,685a150,150 0 0 1 -300,0a10,10 0 0 0 -20,0c0,200 50,215 95,315l-260,0c45,-100 95,-115 95,-315a10,10 0 0 0 -20,0a150,150 0 0 1 -300,0c0,-285 255,-435 355,-685z" id="svg_2"/>
 </symbol>
 <g>
  <title>Layer 1</title>
  <rect width="239" height="335" x="0.12326" y="0.87674" rx="12" ry="12" fill="white" stroke="black" id="svg_3"/>
  <use xlink:href="#S" height="164.8" width="164.8" x="37.22326" y="85.97674" stroke="white" stroke-width="50" id="svg_5"/>
  <use xlink:href="#S" height="164.8" width="164.8" x="37.22326" y="85.97674" fill="black" id="svg_6"/>
  <use xlink:href="#SA" height="32" width="32" x="5.22326" y="12.37674" id="svg_10"/>
  <use xlink:href="#S" height="26.769" width="26.769" x="7.83926" y="49.37674" id="svg_11"/>
  <g transform="rotate(180 119.62326049804686,168.37673950195312) " id="svg_12">
   <use xlink:href="#SA" height="32" width="32" x="5.22326" y="12.37674" id="svg_13"/>
   <use xlink:href="#S" height="26.769" width="26.769" x="7.83926" y="49.37674" id="svg_14"/>
  </g>
 </g>
</svg>