<svg width="239.99999999999997" height="336" xmlns="http://www.w3.org/2000/svg" xmlns:svg="http://www.w3.org/2000/svg" xmlns:xlink="http://www.w3.org/1999/xlink" class="card" preserveAspectRatio="none">
 <symbol preserveAspectRatio="xMinYMid" viewBox="-500 -500 1000 1000" id="HA">
  <path id="svg_1" fill="none" stroke-miterlimit="1.5" stroke-linecap="square" stroke-width="80" stroke="red" d="m-270,460l160,0m-90,-10l200,-910l200,910m-90,10l160,0m-390,-330l240,0"/>
 </symbol>
 <symbol preserveAspectRatio="xMinYMid" viewBox="-600 -600 1200 1200" id="H">
  <path id="svg_2" fill="red" d="m0,-300c0,-100 100,-200 200,-200c100,0 200,100 200,250c0,250 -400,650 -400,750c0,-100 -400,-500 -400,-750c0,-150 100,-250 200,-250c100,0 200,100 200,200z"/>
 </symbol>
 <g>
  <title>Layer 1</title>
  <rect id="svg_3" stroke="black" fill="white" ry="12" rx="12" y="0.24393" x="0.3941" height="335" width="239"/>
  <use id="svg_4" y="132.74393" x="84.8941" width="70" height="70" xlink:href="#H"/>
 </g>
</svg>