<svg width="239.99999999999997" height="336" xmlns="http://www.w3.org/2000/svg" xmlns:svg="http://www.w3.org/2000/svg" xmlns:xlink="http://www.w3.org/1999/xlink" preserveAspectRatio="none" class="card">
 <symbol preserveAspectRatio="xMinYMid" viewBox="-500 -500 1000 1000" id="SA">
  <path id="svg_1" fill="none" stroke-miterlimit="1.5" stroke-linecap="square" stroke-width="80" stroke="black" d="m-270,460l160,0m-90,-10l200,-910l200,910m-90,10l160,0m-390,-330l240,0"/>
 </symbol>
 <symbol preserveAspectRatio="xMinYMid" viewBox="-600 -600 1200 1200" id="S">
  <path id="svg_2" d="m0,-500c100,250 355,400 355,685a150,150 0 0 1 -300,0a10,10 0 0 0 -20,0c0,200 50,215 95,315l-260,0c45,-100 95,-115 95,-315a10,10 0 0 0 -20,0a150,150 0 0 1 -300,0c0,-285 255,-435 355,-685z"/>
 </symbol>
 <g>
  <title>Layer 1</title>
  <rect id="svg_3" stroke="black" fill="white" ry="12" rx="12" y="0.50301" x="0.32101" height="335" width="239"/>
  <use id="svg_5" stroke-width="50" stroke="white" y="85.60301" x="37.42101" width="164.8" height="164.8" xlink:href="#S"/>
  <use id="svg_6" fill="black" y="85.60301" x="37.42101" width="164.8" height="164.8" xlink:href="#S"/>
 </g>
</svg>